<?xml version="1.0" encoding="UTF-8" standalone="no"?>
<svg width="5px" height="5px" viewBox="0 0 5 5" version="1.1" xmlns="http://www.w3.org/2000/svg" xmlns:xlink="http://www.w3.org/1999/xlink" xmlns:sketch="http://www.bohemiancoding.com/sketch/ns">
    <!-- Generator: Sketch 3.1.1 (8761) - http://www.bohemiancoding.com/sketch -->
    <title>browser_shadow_r</title>
    <desc>Created with Sketch.</desc>
    <defs></defs>
    <g id="Page-1" stroke="none" stroke-width="1" fill="none" fill-rule="evenodd" sketch:type="MSPage">
        <g id="Desktop-HD" sketch:type="MSArtboardGroup" transform="translate(-649.000000, -724.000000)" fill-opacity="0.129999995" fill="#000000">
            <g id="Thumbnails" sketch:type="MSLayerGroup" transform="translate(0.000000, 692.000000)">
                <g id="Glean" sketch:type="MSShapeGroup">
                    <g id="Browser-2" transform="translate(40.000000, 20.000000)">
                        <g id="shadows" transform="translate(0.000000, 12.000000)">
                            <path d="M609,0 L609,355 L614,355 L614,0 L609,0 Z M610,0 L610,1 L611,1 L611,0 L610,0 Z M611,0 L611,1 L612,1 L612,0 L611,0 Z M612,0 L612,1 L613,1 L613,0 L612,0 Z M613,0 L613,1 L614,1 L614,0 L613,0 Z M613,1 L613,2 L614,2 L614,1 L613,1 Z M613,2 L613,3 L614,3 L614,2 L613,2 Z M613,3 L613,4 L614,4 L614,3 L613,3 Z M612,1 L612,2 L613,2 L613,1 L612,1 Z" id="browser_shadow_r"></path>
                        </g>
                    </g>
                </g>
            </g>
        </g>
    </g>
</svg>