<?xml version="1.0" encoding="UTF-8" standalone="no"?>
<svg width="50px" height="10px" viewBox="0 0 50 10" version="1.1" xmlns="http://www.w3.org/2000/svg" xmlns:xlink="http://www.w3.org/1999/xlink" xmlns:sketch="http://www.bohemiancoding.com/sketch/ns">
    <!-- Generator: Sketch 3.1.1 (8761) - http://www.bohemiancoding.com/sketch -->
    <title>browser_buttons</title>
    <desc>Created with Sketch.</desc>
    <defs></defs>
    <g id="Page-1" stroke="none" stroke-width="1" fill="none" fill-rule="evenodd" sketch:type="MSPage">
        <g id="Desktop-HD" sketch:type="MSArtboardGroup" transform="translate(-584.000000, -721.000000)" fill="#FFFFFF">
            <g id="Thumbnails" sketch:type="MSLayerGroup" transform="translate(0.000000, 692.000000)">
                <g id="Glean" sketch:type="MSShapeGroup">
                    <g id="Browser-2" transform="translate(40.000000, 20.000000)">
                        <g id="browser_buttons" transform="translate(544.000000, 9.000000)">
                            <path d="M41,2 L41,3 L42,3 L42,2 L41,2 Z M42,2 L42,3 L43,3 L43,2 L42,2 Z M42,1 L42,2 L43,2 L43,1 L42,1 Z M47,1 L47,2 L48,2 L48,1 L47,1 Z M47,2 L47,3 L48,3 L48,2 L47,2 Z M48,2 L48,3 L49,3 L49,2 L48,2 Z M48,7 L48,8 L49,8 L49,7 L48,7 Z M47,7 L47,8 L48,8 L48,7 L47,7 Z M47,8 L47,9 L48,9 L48,8 L47,8 Z M42,8 L42,9 L43,9 L43,8 L42,8 Z M42,7 L42,8 L43,8 L43,7 L42,7 Z M41,7 L41,8 L42,8 L42,7 L41,7 Z M42,3 L42,4 L43,4 L43,3 L42,3 Z M41,3 L41,4 L42,4 L42,3 L41,3 Z M41,4 L41,5 L42,5 L42,4 L41,4 Z M42,4 L42,5 L43,5 L43,4 L42,4 Z M42,5 L42,6 L43,6 L43,5 L42,5 Z M41,5 L41,6 L42,6 L42,5 L41,5 Z M41,6 L41,7 L42,7 L42,6 L41,6 Z M42,6 L42,7 L43,7 L43,6 L42,6 Z M40,5 L40,6 L41,6 L41,5 L40,5 Z M40,4 L40,5 L41,5 L41,4 L40,4 Z M47,4 L47,5 L48,5 L48,4 L47,4 Z M47,3 L47,4 L48,4 L48,3 L47,3 Z M48,3 L48,4 L49,4 L49,3 L48,3 Z M48,4 L48,5 L49,5 L49,4 L48,4 Z M49,4 L49,5 L50,5 L50,4 L49,4 Z M49,5 L49,6 L50,6 L50,5 L49,5 Z M48,5 L48,6 L49,6 L49,5 L48,5 Z M47,5 L47,6 L48,6 L48,5 L47,5 Z M47,6 L47,7 L48,7 L48,6 L47,6 Z M48,6 L48,7 L49,7 L49,6 L48,6 Z M44,0 L44,1 L45,1 L45,0 L44,0 Z M45,0 L45,1 L46,1 L46,0 L45,0 Z M45,1 L45,2 L46,2 L46,1 L45,1 Z M44,1 L44,2 L45,2 L45,1 L44,1 Z M43,1 L43,2 L44,2 L44,1 L43,1 Z M43,2 L43,3 L44,3 L44,2 L43,2 Z M43,3 L43,4 L44,4 L44,3 L43,3 Z M43,4 L43,5 L44,5 L44,4 L43,4 Z M43,5 L43,6 L44,6 L44,5 L43,5 Z M43,6 L43,7 L44,7 L44,6 L43,6 Z M43,7 L43,8 L44,8 L44,7 L43,7 Z M43,8 L43,9 L44,9 L44,8 L43,8 Z M44,9 L44,10 L45,10 L45,9 L44,9 Z M45,9 L45,10 L46,10 L46,9 L45,9 Z M46,8 L46,9 L47,9 L47,8 L46,8 Z M45,8 L45,9 L46,9 L46,8 L45,8 Z M44,8 L44,9 L45,9 L45,8 L44,8 Z M44,7 L44,8 L45,8 L45,7 L44,7 Z M44,6 L44,7 L45,7 L45,6 L44,6 Z M44,5 L44,6 L45,6 L45,5 L44,5 Z M44,4 L44,5 L45,5 L45,4 L44,4 Z M44,3 L44,4 L45,4 L45,3 L44,3 Z M44,2 L44,3 L45,3 L45,2 L44,2 Z M45,2 L45,3 L46,3 L46,2 L45,2 Z M46,1 L46,2 L47,2 L47,1 L46,1 Z M46,2 L46,3 L47,3 L47,2 L46,2 Z M46,3 L46,4 L47,4 L47,3 L46,3 Z M46,4 L46,5 L47,5 L47,4 L46,4 Z M46,5 L46,6 L47,6 L47,5 L46,5 Z M46,6 L46,7 L47,7 L47,6 L46,6 Z M46,7 L46,8 L47,8 L47,7 L46,7 Z M45,7 L45,8 L46,8 L46,7 L45,7 Z M45,6 L45,7 L46,7 L46,6 L45,6 Z M45,5 L45,6 L46,6 L46,5 L45,5 Z M45,4 L45,5 L46,5 L46,4 L45,4 Z M45,3 L45,4 L46,4 L46,3 L45,3 Z" id="Rectangle-119"></path>
                            <path d="M21,2 L21,3 L22,3 L22,2 L21,2 Z M22,2 L22,3 L23,3 L23,2 L22,2 Z M22,1 L22,2 L23,2 L23,1 L22,1 Z M27,1 L27,2 L28,2 L28,1 L27,1 Z M27,2 L27,3 L28,3 L28,2 L27,2 Z M28,2 L28,3 L29,3 L29,2 L28,2 Z M28,7 L28,8 L29,8 L29,7 L28,7 Z M27,7 L27,8 L28,8 L28,7 L27,7 Z M27,8 L27,9 L28,9 L28,8 L27,8 Z M22,8 L22,9 L23,9 L23,8 L22,8 Z M22,7 L22,8 L23,8 L23,7 L22,7 Z M21,7 L21,8 L22,8 L22,7 L21,7 Z M22,3 L22,4 L23,4 L23,3 L22,3 Z M21,3 L21,4 L22,4 L22,3 L21,3 Z M21,4 L21,5 L22,5 L22,4 L21,4 Z M22,4 L22,5 L23,5 L23,4 L22,4 Z M22,5 L22,6 L23,6 L23,5 L22,5 Z M21,5 L21,6 L22,6 L22,5 L21,5 Z M21,6 L21,7 L22,7 L22,6 L21,6 Z M22,6 L22,7 L23,7 L23,6 L22,6 Z M20,5 L20,6 L21,6 L21,5 L20,5 Z M20,4 L20,5 L21,5 L21,4 L20,4 Z M27,4 L27,5 L28,5 L28,4 L27,4 Z M27,3 L27,4 L28,4 L28,3 L27,3 Z M28,3 L28,4 L29,4 L29,3 L28,3 Z M28,4 L28,5 L29,5 L29,4 L28,4 Z M29,4 L29,5 L30,5 L30,4 L29,4 Z M29,5 L29,6 L30,6 L30,5 L29,5 Z M28,5 L28,6 L29,6 L29,5 L28,5 Z M27,5 L27,6 L28,6 L28,5 L27,5 Z M27,6 L27,7 L28,7 L28,6 L27,6 Z M28,6 L28,7 L29,7 L29,6 L28,6 Z M24,0 L24,1 L25,1 L25,0 L24,0 Z M25,0 L25,1 L26,1 L26,0 L25,0 Z M25,1 L25,2 L26,2 L26,1 L25,1 Z M24,1 L24,2 L25,2 L25,1 L24,1 Z M23,1 L23,2 L24,2 L24,1 L23,1 Z M23,2 L23,3 L24,3 L24,2 L23,2 Z M23,3 L23,4 L24,4 L24,3 L23,3 Z M23,4 L23,5 L24,5 L24,4 L23,4 Z M23,5 L23,6 L24,6 L24,5 L23,5 Z M23,6 L23,7 L24,7 L24,6 L23,6 Z M23,7 L23,8 L24,8 L24,7 L23,7 Z M23,8 L23,9 L24,9 L24,8 L23,8 Z M24,9 L24,10 L25,10 L25,9 L24,9 Z M25,9 L25,10 L26,10 L26,9 L25,9 Z M26,8 L26,9 L27,9 L27,8 L26,8 Z M25,8 L25,9 L26,9 L26,8 L25,8 Z M24,8 L24,9 L25,9 L25,8 L24,8 Z M24,7 L24,8 L25,8 L25,7 L24,7 Z M24,6 L24,7 L25,7 L25,6 L24,6 Z M24,5 L24,6 L25,6 L25,5 L24,5 Z M24,4 L24,5 L25,5 L25,4 L24,4 Z M24,3 L24,4 L25,4 L25,3 L24,3 Z M24,2 L24,3 L25,3 L25,2 L24,2 Z M25,2 L25,3 L26,3 L26,2 L25,2 Z M26,1 L26,2 L27,2 L27,1 L26,1 Z M26,2 L26,3 L27,3 L27,2 L26,2 Z M26,3 L26,4 L27,4 L27,3 L26,3 Z M26,4 L26,5 L27,5 L27,4 L26,4 Z M26,5 L26,6 L27,6 L27,5 L26,5 Z M26,6 L26,7 L27,7 L27,6 L26,6 Z M26,7 L26,8 L27,8 L27,7 L26,7 Z M25,7 L25,8 L26,8 L26,7 L25,7 Z M25,6 L25,7 L26,7 L26,6 L25,6 Z M25,5 L25,6 L26,6 L26,5 L25,5 Z M25,4 L25,5 L26,5 L26,4 L25,4 Z M25,3 L25,4 L26,4 L26,3 L25,3 Z" id="Rectangle-120"></path>
                            <path d="M1,2 L1,3 L2,3 L2,2 L1,2 Z M2,2 L2,3 L3,3 L3,2 L2,2 Z M2,1 L2,2 L3,2 L3,1 L2,1 Z M7,1 L7,2 L8,2 L8,1 L7,1 Z M7,2 L7,3 L8,3 L8,2 L7,2 Z M8,2 L8,3 L9,3 L9,2 L8,2 Z M8,7 L8,8 L9,8 L9,7 L8,7 Z M7,7 L7,8 L8,8 L8,7 L7,7 Z M7,8 L7,9 L8,9 L8,8 L7,8 Z M2,8 L2,9 L3,9 L3,8 L2,8 Z M2,7 L2,8 L3,8 L3,7 L2,7 Z M1,7 L1,8 L2,8 L2,7 L1,7 Z M2,3 L2,4 L3,4 L3,3 L2,3 Z M1,3 L1,4 L2,4 L2,3 L1,3 Z M1,4 L1,5 L2,5 L2,4 L1,4 Z M2,4 L2,5 L3,5 L3,4 L2,4 Z M2,5 L2,6 L3,6 L3,5 L2,5 Z M1,5 L1,6 L2,6 L2,5 L1,5 Z M1,6 L1,7 L2,7 L2,6 L1,6 Z M2,6 L2,7 L3,7 L3,6 L2,6 Z M0,5 L0,6 L1,6 L1,5 L0,5 Z M0,4 L0,5 L1,5 L1,4 L0,4 Z M7,4 L7,5 L8,5 L8,4 L7,4 Z M7,3 L7,4 L8,4 L8,3 L7,3 Z M8,3 L8,4 L9,4 L9,3 L8,3 Z M8,4 L8,5 L9,5 L9,4 L8,4 Z M9,4 L9,5 L10,5 L10,4 L9,4 Z M9,5 L9,6 L10,6 L10,5 L9,5 Z M8,5 L8,6 L9,6 L9,5 L8,5 Z M7,5 L7,6 L8,6 L8,5 L7,5 Z M7,6 L7,7 L8,7 L8,6 L7,6 Z M8,6 L8,7 L9,7 L9,6 L8,6 Z M4,0 L4,1 L5,1 L5,0 L4,0 Z M5,0 L5,1 L6,1 L6,0 L5,0 Z M5,1 L5,2 L6,2 L6,1 L5,1 Z M4,1 L4,2 L5,2 L5,1 L4,1 Z M3,1 L3,2 L4,2 L4,1 L3,1 Z M3,2 L3,3 L4,3 L4,2 L3,2 Z M3,3 L3,4 L4,4 L4,3 L3,3 Z M3,4 L3,5 L4,5 L4,4 L3,4 Z M3,5 L3,6 L4,6 L4,5 L3,5 Z M3,6 L3,7 L4,7 L4,6 L3,6 Z M3,7 L3,8 L4,8 L4,7 L3,7 Z M3,8 L3,9 L4,9 L4,8 L3,8 Z M4,9 L4,10 L5,10 L5,9 L4,9 Z M5,9 L5,10 L6,10 L6,9 L5,9 Z M6,8 L6,9 L7,9 L7,8 L6,8 Z M5,8 L5,9 L6,9 L6,8 L5,8 Z M4,8 L4,9 L5,9 L5,8 L4,8 Z M4,7 L4,8 L5,8 L5,7 L4,7 Z M4,6 L4,7 L5,7 L5,6 L4,6 Z M4,5 L4,6 L5,6 L5,5 L4,5 Z M4,4 L4,5 L5,5 L5,4 L4,4 Z M4,3 L4,4 L5,4 L5,3 L4,3 Z M4,2 L4,3 L5,3 L5,2 L4,2 Z M5,2 L5,3 L6,3 L6,2 L5,2 Z M6,1 L6,2 L7,2 L7,1 L6,1 Z M6,2 L6,3 L7,3 L7,2 L6,2 Z M6,3 L6,4 L7,4 L7,3 L6,3 Z M6,4 L6,5 L7,5 L7,4 L6,4 Z M6,5 L6,6 L7,6 L7,5 L6,5 Z M6,6 L6,7 L7,7 L7,6 L6,6 Z M6,7 L6,8 L7,8 L7,7 L6,7 Z M5,7 L5,8 L6,8 L6,7 L5,7 Z M5,6 L5,7 L6,7 L6,6 L5,6 Z M5,5 L5,6 L6,6 L6,5 L5,5 Z M5,4 L5,5 L6,5 L6,4 L5,4 Z M5,3 L5,4 L6,4 L6,3 L5,3 Z" id="Rectangle-121"></path>
                        </g>
                    </g>
                </g>
            </g>
        </g>
    </g>
</svg>