<?xml version="1.0" encoding="UTF-8" standalone="no"?>
<svg width="5px" height="5px" viewBox="0 0 5 5" version="1.1" xmlns="http://www.w3.org/2000/svg" xmlns:xlink="http://www.w3.org/1999/xlink" xmlns:sketch="http://www.bohemiancoding.com/sketch/ns">
    <!-- Generator: Sketch 3.1.1 (8761) - http://www.bohemiancoding.com/sketch -->
    <title>browser_shadow_l</title>
    <desc>Created with Sketch.</desc>
    <defs></defs>
    <g id="Page-1" stroke="none" stroke-width="1" fill="none" fill-rule="evenodd" sketch:type="MSPage">
        <g id="Desktop-HD" sketch:type="MSArtboardGroup" transform="translate(-40.000000, -724.000000)" fill-opacity="0.129999995" fill="#000000">
            <g id="Thumbnails" sketch:type="MSLayerGroup" transform="translate(0.000000, 692.000000)">
                <g id="Glean" sketch:type="MSShapeGroup">
                    <g id="Browser-2" transform="translate(40.000000, 20.000000)">
                        <g id="shadows" transform="translate(0.000000, 12.000000)">
                            <path d="M0,0 L0,355 L5,355 L5,0 L0,0 Z M0,0 L0,1 L1,1 L1,0 L0,0 Z M1,0 L1,1 L2,1 L2,0 L1,0 Z M2,0 L2,1 L3,1 L3,0 L2,0 Z M3,0 L3,1 L4,1 L4,0 L3,0 Z M0,3 L0,4 L1,4 L1,3 L0,3 Z M0,2 L0,3 L1,3 L1,2 L0,2 Z M0,1 L0,2 L1,2 L1,1 L0,1 Z M1,1 L1,2 L2,2 L2,1 L1,1 Z" id="browser_shadow_l"></path>
                        </g>
                    </g>
                </g>
            </g>
        </g>
    </g>
</svg>