<?xml version="1.0" encoding="UTF-8" standalone="no"?>
<svg width="333px" height="270px" viewBox="0 0 333 270" version="1.1" xmlns="http://www.w3.org/2000/svg" xmlns:xlink="http://www.w3.org/1999/xlink" xmlns:sketch="http://www.bohemiancoding.com/sketch/ns">
    <!-- Generator: Sketch 3.1.1 (8761) - http://www.bohemiancoding.com/sketch -->
    <title>iphone_background</title>
    <desc>Created with Sketch.</desc>
    <defs></defs>
    <g id="Page-1" stroke="none" stroke-width="1" fill="none" fill-rule="evenodd" sketch:type="MSPage">
        <g id="Desktop-HD" sketch:type="MSArtboardGroup" transform="translate(-916.000000, -1438.000000)">
            <g id="Thumbnails" sketch:type="MSLayerGroup" transform="translate(0.000000, 692.000000)">
                <g id="TripChat" transform="translate(725.000000, 684.000000)" sketch:type="MSShapeGroup">
                    <g id="iPhone-Mockup" transform="translate(191.000000, 62.000000)">
                        <g id="iphone_background">
                            <path d="M328,48 L328,308 L333,308 L333,48 L328,48 Z M329,48 L329,48.7323944 L330,48.7323944 L330,48 L329,48 Z M330,48 L330,48.7323944 L331,48.7323944 L331,48 L330,48 Z M331,48 L331,48.7323944 L332,48.7323944 L332,48 L331,48 Z M332,48 L332,48.7323944 L333,48.7323944 L333,48 L332,48 Z M332,48.7323944 L332,49.4647887 L333,49.4647887 L333,48.7323944 L332,48.7323944 Z M332,49.4647887 L332,50.1971831 L333,50.1971831 L333,49.4647887 L332,49.4647887 Z M332,50.1971831 L332,50.9295775 L333,50.9295775 L333,50.1971831 L332,50.1971831 Z M331,48.7323944 L331,49.4647887 L332,49.4647887 L332,48.7323944 L331,48.7323944 Z" id="browser_shadow_r-2" fill-opacity="0.129999995" fill="#000000"></path>
                            <path d="M0,48 L0,308 L5,308 L5,48 L0,48 Z M0,48 L0,48.7323944 L1,48.7323944 L1,48 L0,48 Z M1,48 L1,48.7323944 L2,48.7323944 L2,48 L1,48 Z M2,48 L2,48.7323944 L3,48.7323944 L3,48 L2,48 Z M3,48 L3,48.7323944 L4,48.7323944 L4,48 L3,48 Z M0,50.1971831 L0,50.9295775 L1,50.9295775 L1,50.1971831 L0,50.1971831 Z M0,49.4647887 L0,50.1971831 L1,50.1971831 L1,49.4647887 L0,49.4647887 Z M0,48.7323944 L0,49.4647887 L1,49.4647887 L1,48.7323944 L0,48.7323944 Z M1,48.7323944 L1,49.4647887 L2,49.4647887 L2,48.7323944 L1,48.7323944 Z" id="browser_shadow_l-2" fill-opacity="0.129999995" fill="#000000"></path>
                            <path d="M328.241621,45.7357951 C328.241621,21.5815584 308.667998,2 284.528782,2 L48.4794532,2 C24.3375196,2 4.76729391,21.5815584 4.76729391,45.7357951 L4.76729391,632.264885 C4.76729391,656.416402 24.3375196,676 48.4794532,676 L284.528782,676 C308.667998,676 328.241621,656.416402 328.241621,632.264885 L328.241621,45.7357951 Z M188.608519,43.4212463 C188.608519,44.8432833 187.456251,45.9968191 186.034258,45.9968191 L141.419851,45.9968191 C139.998538,45.9968191 138.846269,44.8432833 138.846269,43.4212463 C138.846269,41.9992093 139.998538,40.8463533 141.419851,40.8463533 L186.034258,40.8463533 C187.456251,40.8463533 188.608519,41.9992093 188.608519,43.4212463 Z M169.526106,23.1055579 C169.526106,25.6342279 167.477703,27.6836742 164.950321,27.6836742 C162.422939,27.6836742 160.374537,25.6342279 160.374537,23.1055579 C160.374537,20.5775676 162.422939,18.5274416 164.950321,18.5274416 C167.477703,18.5274416 169.526106,20.5775676 169.526106,23.1055579 Z M18.7005065,69.8202026 C18.7005065,68.1615384 20.0511497,66.8169254 21.6983044,66.8169254 L311.309251,66.8169254 C312.964889,66.8169254 314.307049,68.150981 314.307049,69.8202026 L314.307049,575.216767 C314.307049,576.875431 312.956406,578.220044 311.309251,578.220044 L21.6983044,578.220044 C20.0426663,578.220044 18.7005065,576.885989 18.7005065,575.216767 L18.7005065,69.8202026 Z" id="Fill-3" fill="#EDEDE9"></path>
                        </g>
                    </g>
                </g>
            </g>
        </g>
    </g>
</svg>